<svg width="150" height="150" viewBox="0 0 150 150" fill="none" xmlns="http://www.w3.org/2000/svg">
<rect width="150" height="150" rx="40" fill="url(#paint0_linear_1_8)"/>
<path d="M53.864 109.192C55.528 100.36 57.16 91.688 58.76 83.176C59.336 79.592 59.976 75.88 60.68 72.04C61.384 68.136 62.056 64.296 62.696 60.52C63.336 56.744 63.944 53.096 64.52 49.576C65.096 45.992 65.608 42.728 66.056 39.784L81.608 38.728C80.52 43.208 79.432 47.88 78.344 52.744C77.32 57.608 76.36 62.344 75.464 66.952L84.968 65.896C85.864 61.352 86.664 56.968 87.368 52.744C88.072 48.456 89 44.04 90.152 39.496C91.624 39.24 93.256 39.048 95.048 38.92C96.84 38.728 98.504 38.568 100.04 38.44C101.576 38.312 102.856 38.216 103.88 38.152C104.968 38.024 105.512 37.96 105.512 37.96C104.616 40.84 103.752 44.008 102.92 47.464C102.152 50.856 101.384 54.408 100.616 58.12C99.848 61.768 99.112 65.48 98.408 69.256C97.704 73.032 97.064 76.616 96.488 80.008C95.08 88.136 93.768 96.456 92.552 104.968L77.576 106.696C78.408 102.856 79.144 99.112 79.784 95.464C80.424 92.392 81.064 89.192 81.704 85.864C82.408 82.536 82.952 79.688 83.336 77.32L74.024 78.184C73.576 80.616 73.032 83.432 72.392 86.632C71.816 89.832 71.272 92.872 70.76 95.752C70.056 99.208 69.352 102.664 68.648 106.12L53.864 109.192Z" fill="url(#paint1_linear_1_8)"/>
<defs>
<linearGradient id="paint0_linear_1_8" x1="75" y1="0" x2="75" y2="150" gradientUnits="userSpaceOnUse">
<stop stop-color="#C41EFF"/>
<stop offset="0.9999" stop-color="#4300FF" stop-opacity="0.427083"/>
<stop offset="1" stop-color="#183392" stop-opacity="0"/>
</linearGradient>
<linearGradient id="paint1_linear_1_8" x1="74.5" y1="24" x2="74.5" y2="126" gradientUnits="userSpaceOnUse">
<stop offset="0.45098" stop-color="#E2DA19"/>
<stop offset="1" stop-color="white" stop-opacity="0"/>
</linearGradient>
</defs>
</svg>
