<svg width="150" height="150" viewBox="0 0 150 150" fill="none" xmlns="http://www.w3.org/2000/svg">
<rect width="150" height="150" rx="40" fill="url(#paint0_linear_1_5)"/>
<path d="M64.432 96.096C65.264 91.68 66.08 87.344 66.88 83.088C67.168 81.296 67.488 79.44 67.84 77.52C68.192 75.568 68.528 73.648 68.848 71.76C69.168 69.872 69.472 68.048 69.76 66.288C70.048 64.496 70.304 62.864 70.528 61.392L78.304 60.864C77.76 63.104 77.216 65.44 76.672 67.872C76.16 70.304 75.68 72.672 75.232 74.976L79.984 74.448C80.432 72.176 80.832 69.984 81.184 67.872C81.536 65.728 82 63.52 82.576 61.248C83.312 61.12 84.128 61.024 85.024 60.96C85.92 60.864 86.752 60.784 87.52 60.72C88.288 60.656 88.928 60.608 89.44 60.576C89.984 60.512 90.256 60.48 90.256 60.48C89.808 61.92 89.376 63.504 88.96 65.232C88.576 66.928 88.192 68.704 87.808 70.56C87.424 72.384 87.056 74.24 86.704 76.128C86.352 78.016 86.032 79.808 85.744 81.504C85.04 85.568 84.384 89.728 83.776 93.984L76.288 94.848C76.704 92.928 77.072 91.056 77.392 89.232C77.712 87.696 78.032 86.096 78.352 84.432C78.704 82.768 78.976 81.344 79.168 80.16L74.512 80.592C74.288 81.808 74.016 83.216 73.696 84.816C73.408 86.416 73.136 87.936 72.88 89.376C72.528 91.104 72.176 92.832 71.824 94.56L64.432 96.096Z" fill="url(#paint1_linear_1_5)"/>
<defs>
<linearGradient id="paint0_linear_1_5" x1="75" y1="0" x2="75" y2="150" gradientUnits="userSpaceOnUse">
<stop stop-color="#C41EFF"/>
<stop offset="0.9999" stop-color="#4300FF" stop-opacity="0.427083"/>
<stop offset="1" stop-color="#183392" stop-opacity="0"/>
</linearGradient>
<linearGradient id="paint1_linear_1_5" x1="75" y1="54" x2="75" y2="105" gradientUnits="userSpaceOnUse">
<stop offset="0.45098" stop-color="#E2DA19"/>
<stop offset="1" stop-color="white" stop-opacity="0"/>
</linearGradient>
</defs>
</svg>
